<?xml version="1.0"?><svg viewBox="0 0 100 100" xmlns="http://www.w3.org/2000/svg"><title/><path d="M85,6H51a9.01,9.01,0,0,0-9,9V85a9.01,9.01,0,0,0,9,9H85a9.01,9.01,0,0,0,9-9V15A9.01,9.01,0,0,0,85,6Zm5,79a5.006,5.006,0,0,1-5,5H51a5.006,5.006,0,0,1-5-5V15a5.006,5.006,0,0,1,5-5H85a5.006,5.006,0,0,1,5,5ZM17,38H13V27A11.012,11.012,0,0,1,24,16h7.172l-5.586-5.586,2.828-2.828L38.828,18,28.414,28.414l-2.828-2.828L31.172,20H24a7.008,7.008,0,0,0-7,7Zm-2,4H40v4H15a5.006,5.006,0,0,0-5,5V85a5.006,5.006,0,0,0,5,5H40v4H15a9.01,9.01,0,0,1-9-9V51A9.01,9.01,0,0,1,15,42ZM85,18H51a3,3,0,0,0-3,3V79a3,3,0,0,0,3,3H85a3,3,0,0,0,3-3V21A3,3,0,0,0,85,18ZM84,78H52V22H84ZM21,48H40v4H22V84H40v4H21a3,3,0,0,1-3-3V51A3,3,0,0,1,21,48ZM73,16H63V12H73ZM12,63h4V73H12Z"/></svg>